<svg xmlns="http://www.w3.org/2000/svg" id="Layer_5" height="512" viewBox="0 0 64 64" width="512" class=""><g><g><g><g><path d="m55 53c-1.654 0-3-1.346-3-3s1.346-3 3-3 3 1.346 3 3-1.346 3-3 3z" fill="#f0bc5e" data-original="#F0BC5E" class=""></path></g></g><g><g><path d="m25 53c-1.654 0-3-1.346-3-3s1.346-3 3-3 3 1.346 3 3-1.346 3-3 3z" fill="#f0bc5e" data-original="#F0BC5E" class=""></path></g></g><path d="m32 1c-11.028 0-20 8.972-20 20" fill="#f0bc5e" data-original="#F0BC5E" class=""></path><g><path d="m25.174 34.36h-.001c-4.852-2.484-8.173-7.534-8.173-13.36 0-8.284 6.716-15 15-15s15 6.716 15 15c0 2.528-.625 4.91-1.73 7h5.15c.101 0 .197.02.296.028.843-2.247 1.284-4.607 1.284-7.028 0-11.028-8.972-20-20-20s-20 8.972-20 20c0 7.625 4.239 14.483 11.063 17.897l.394.197 1.051-.402z" fill="#f0bc5e" data-original="#F0BC5E" class=""></path></g><g><path d="m60.801 42.552c1.299-.662 2.199-1.997 2.199-3.552 0-1.103-.897-2-2-2h-4.757l-.853-5.553c-.283-2.535-2.419-4.447-4.97-4.447h-3.592c.766-1.897 1.172-3.942 1.172-6 0-8.822-7.178-16-16-16s-16 7.178-16 16c0 5.792 3.081 11.047 8.08 13.896l-.323 2.104h-4.757c-1.103 0-2 .897-2 2 0 .472.097.918.247 1.339l-8.713 8.712c-.611.612-1.425.949-2.292.949-1.788 0-3.242-1.455-3.242-3.243 0-.866.337-1.68.949-2.293l11.79-11.789c-.399-.555-.759-1.136-1.099-1.729l-12.106 12.105c-.989.991-1.534 2.307-1.534 3.706 0 2.891 2.352 5.243 5.242 5.243 1.401 0 2.718-.545 3.707-1.536l8.451-8.45c.243.21.51.39.799.537-1.344 1.165-2.199 2.878-2.199 4.791 0 .517.063 1.034.189 1.539l.705 2.816c.55 2.202 2.11 3.916 4.105 4.747v2.556c0 2.206 1.794 4 4 4h2c2.206 0 4-1.794 4-4v-2h16v2c0 2.206 1.794 4 4 4h2c2.206 0 4-1.794 4-4v-2.556c1.995-.831 3.556-2.545 4.105-4.746l.706-2.818c.127-.504.19-1.021.19-1.538 0-1.913-.855-3.626-2.199-4.79zm.199-3.552c0 1.103-.897 2-2 2h-2.142l-.307-2zm-7.593-7.29 1.428 9.29h-13.915c-.488-3.387-3.401-6-6.92-6s-6.432 2.613-6.92 6h-1.915l1.433-9.331c.17-1.522 1.452-2.669 2.982-2.669h20.84c1.53 0 2.812 1.147 2.987 2.71zm-18.407 19.29h2v4h-2zm4 0h2v4h-2zm4 0h2v4h-2zm2.586-2h-11.172l-6-6h23.172zm-16.485-8c.465-2.279 2.484-4 4.899-4s4.434 1.721 4.899 4zm-3.336-16.83c-.169-.333-.311-.672-.419-1.006l-.155-.476-1.191-.404v-2.568l1.19-.405.155-.476c.108-.334.25-.672.419-1.006l.228-.446-.558-1.133 1.816-1.816 1.133.558.447-.228c.332-.169.67-.311 1.004-.42l.476-.155.406-1.189h2.568l.405 1.19.476.155c.334.109.672.25 1.004.42l.447.228 1.133-.558 1.816 1.816-.558 1.133.228.446c.169.333.311.672.419 1.006l.155.476 1.191.404v2.568l-1.19.405-.155.476c-.108.334-.25.672-.419 1.006l-.228.446.557 1.132-1.252 1.251h-7.733c-.834 0-1.615.221-2.31.584l-1.835-1.835.557-1.133zm-7.765-3.17c0-7.72 6.28-14 14-14s14 6.28 14 14c0 2.079-.488 4.135-1.373 6h-4.484l.85-.849-.756-1.535c.052-.116.101-.233.146-.35l1.617-.55v-5.432l-1.617-.55c-.046-.117-.095-.234-.146-.35l.755-1.534-3.84-3.841-1.535.755c-.116-.052-.232-.101-.35-.146l-.551-1.618h-5.432l-.551 1.617c-.117.046-.233.095-.35.146l-1.535-.755-3.84 3.841.755 1.534c-.052.116-.101.233-.146.35l-1.617.551v5.432l1.617.551c.046.117.095.233.146.35l-.756 1.534 2.695 2.694c-.585.716-.979 1.592-1.087 2.562l-.208 1.351c-3.981-2.568-6.407-6.951-6.407-11.758zm5.449 18-.307 2h-2.142c-1.103 0-2-.897-2-2zm-3.615 12.212-.704-2.816c-.086-.345-.13-.7-.13-1.054 0-2.394 1.948-4.342 4.343-4.342h.657 1.586l7.414 7.414v4.586h-8.315c-2.299 0-4.293-1.557-4.851-3.788zm10.166 7.788c0 1.103-.897 2-2 2h-2c-1.103 0-2-.897-2-2v-2.058c.228.023.452.058.685.058h5.315zm26 0c0 1.103-.897 2-2 2h-2c-1.103 0-2-.897-2-2v-2h5.315c.233 0 .457-.035.685-.058zm4.871-10.604-.705 2.817c-.558 2.23-2.552 3.787-4.851 3.787h-8.315v-4.586l7.414-7.414h1.586.657c2.395 0 4.343 1.948 4.343 4.342 0 .354-.044.709-.129 1.054z" data-original="#000000" class="active-path"></path><path d="m32 26c2.757 0 5-2.243 5-5s-2.243-5-5-5-5 2.243-5 5 2.243 5 5 5zm0-8c1.654 0 3 1.346 3 3s-1.346 3-3 3-3-1.346-3-3 1.346-3 3-3z" data-original="#000000" class="active-path"></path><circle cx="6" cy="47" r="1" data-original="#000000" class="active-path"></circle></g></g></g></svg>